<svg xmlns="http://www.w3.org/2000/svg" width="300" height="120" viewBox="0 0 300 120" version="1.1"><path d="M 235.046 15.640 C 223.634 28.127, 220.323 42.303, 226.609 51.770 L 228.421 54.500 229.832 47.250 C 230.608 43.263, 231.687 40, 232.229 40 C 232.771 40, 232.967 40.645, 232.664 41.432 C 231.431 44.645, 230.761 55, 231.786 55 C 233.469 55, 240.709 46.226, 243.203 41.162 C 246.207 35.065, 246.438 21.931, 243.667 14.750 C 242.659 12.137, 241.467 10, 241.018 10 C 240.568 10, 237.881 12.538, 235.046 15.640 M 272.043 27.139 C 266.169 28.112, 257.776 31.599, 252.831 35.120 C 248.506 38.200, 244 45.684, 244 49.789 L 244 53.186 248.889 49.093 C 255.770 43.332, 256.413 44.006, 250.118 50.381 C 247.195 53.340, 245.251 56.037, 245.797 56.375 C 247.362 57.342, 256.852 55.215, 262.493 52.632 C 271.202 48.645, 278.783 39.004, 280.529 29.695 C 281.315 25.509, 281.513 25.569, 272.043 27.139 M 189 53.111 C 189 54.163, 198.413 54.124, 202 53.057 C 203.621 52.575, 201.774 52.297, 196.750 52.268 C 192.488 52.243, 189 52.622, 189 53.111 M 227.831 64.026 L 228.210 68 224.164 68 C 221.939 68, 219.899 68.355, 219.631 68.788 C 219.363 69.221, 221.249 69.334, 223.822 69.038 C 228.280 68.525, 228.515 68.341, 228.823 65.123 C 229 63.265, 228.765 61.365, 228.299 60.899 C 227.833 60.433, 227.623 61.840, 227.831 64.026 M 44.252 64.500 C 44.263 66.700, 44.468 67.482, 44.707 66.238 C 44.946 64.994, 44.937 63.194, 44.687 62.238 C 44.437 61.282, 44.241 62.300, 44.252 64.500 M 49.460 76.249 L 49.500 91.500 59.752 91.555 L 70.004 91.610 60.028 91.271 L 50.052 90.931 49.735 75.964 L 49.419 60.998 49.460 76.249 M 98.252 64.500 C 98.263 66.700, 98.468 67.482, 98.707 66.238 C 98.946 64.994, 98.937 63.194, 98.687 62.238 C 98.437 61.282, 98.241 62.300, 98.252 64.500 M 141.460 76.249 L 141.500 91.500 153.500 91.546 L 165.500 91.592 153.776 91.266 L 142.052 90.939 141.735 75.968 L 141.419 60.998 141.460 76.249 M 166.252 64.500 C 166.263 66.700, 166.468 67.482, 166.707 66.238 C 166.946 64.994, 166.937 63.194, 166.687 62.238 C 166.437 61.282, 166.241 62.300, 166.252 64.500 M 199.220 75.690 L 199 90.879 195.250 91.272 L 191.500 91.664 195.281 91.832 C 197.589 91.934, 199.257 91.495, 199.560 90.704 C 199.834 89.991, 199.919 82.904, 199.749 74.954 L 199.441 60.500 199.220 75.690 M 245.500 64.477 C 248.675 67.214, 250.376 67.933, 253.750 67.962 C 257.948 68, 258 67.957, 258 64.500 L 258 61 249.750 61.015 L 241.500 61.030 245.500 64.477 M 170.457 76.500 L 170.500 91.500 174.757 91.598 L 179.015 91.696 175.034 91.292 L 171.053 90.888 170.733 76.194 L 170.414 61.500 170.457 76.500 M 136.395 76.500 C 136.396 84.200, 136.553 87.218, 136.743 83.206 C 136.934 79.195, 136.932 72.895, 136.741 69.206 C 136.549 65.518, 136.393 68.800, 136.395 76.500 M 246.500 69 C 247.495 70.100, 248.535 71, 248.810 71 C 249.085 71, 248.495 70.100, 247.500 69 C 246.505 67.900, 245.465 67, 245.190 67 C 244.915 67, 245.505 67.900, 246.500 69 M 150.158 70 C 150.158 71.375, 150.385 71.938, 150.662 71.250 C 150.940 70.563, 150.940 69.438, 150.662 68.750 C 150.385 68.063, 150.158 68.625, 150.158 70 M 204.264 68.718 C 205.784 68.947, 208.034 68.941, 209.264 68.704 C 210.494 68.467, 209.250 68.279, 206.500 68.286 C 203.750 68.294, 202.744 68.488, 204.264 68.718 M 232.195 70.500 C 232.215 72.150, 232.439 72.704, 232.693 71.731 C 232.947 70.758, 232.930 69.408, 232.656 68.731 C 232.382 68.054, 232.175 68.850, 232.195 70.500 M 242.250 70.250 C 242.478 70.938, 243.514 71.664, 244.551 71.865 C 246.182 72.181, 246.256 72.013, 245.096 70.615 C 243.510 68.704, 241.656 68.466, 242.250 70.250 M 210.444 80.500 L 210.500 91.500 214.757 91.598 L 219.015 91.696 215.041 91.292 L 211.067 90.888 210.727 80.194 L 210.388 69.500 210.444 80.500 M 163.881 75.219 C 164.342 77.996, 164.482 78.136, 164.797 76.135 C 165.002 74.834, 164.757 73.357, 164.253 72.853 C 163.698 72.298, 163.552 73.231, 163.881 75.219 M 252.500 75 C 253.495 76.100, 254.535 77, 254.810 77 C 255.085 77, 254.495 76.100, 253.500 75 C 252.505 73.900, 251.465 73, 251.190 73 C 250.915 73, 251.505 73.900, 252.500 75 M 128.432 85 L 128.500 91.500 132.259 91.605 C 136 91.709, 136.001 91.708, 132.553 91.297 L 129.089 90.885 128.726 84.692 L 128.363 78.500 128.432 85 M 23.750 79.740 C 27.188 79.936, 32.813 79.936, 36.250 79.740 C 39.688 79.545, 36.875 79.385, 30 79.385 C 23.125 79.385, 20.313 79.545, 23.750 79.740 M 86.250 79.728 C 88.313 79.944, 91.688 79.944, 93.750 79.728 C 95.813 79.513, 94.125 79.336, 90 79.336 C 85.875 79.336, 84.188 79.513, 86.250 79.728 M 150.374 80.467 C 150.065 81.274, 150.043 82.511, 150.327 83.217 C 150.610 83.923, 150.878 83.507, 150.921 82.294 C 150.994 80.262, 151.574 80.060, 158.250 79.743 L 165.500 79.397 158.219 79.199 C 152.608 79.046, 150.808 79.337, 150.374 80.467 M 232.190 87.750 L 232.500 91.500 241 91.569 L 249.500 91.637 241.250 91.278 L 233 90.919 233 88.005 C 233 85.109, 233.041 85.089, 239.750 84.742 L 246.500 84.392 239.190 84.196 L 231.879 84 232.190 87.750 M 166.158 88 C 166.158 89.375, 166.385 89.938, 166.662 89.250 C 166.940 88.563, 166.940 87.438, 166.662 86.750 C 166.385 86.063, 166.158 86.625, 166.158 88 M 116.853 88.253 C 117.357 88.757, 118.834 89.002, 120.135 88.797 C 122.136 88.482, 121.996 88.342, 119.219 87.881 C 117.231 87.552, 116.298 87.698, 116.853 88.253 M 24.206 91.741 C 27.895 91.932, 34.195 91.934, 38.206 91.743 C 42.218 91.553, 39.200 91.396, 31.500 91.395 C 23.800 91.393, 20.518 91.549, 24.206 91.741 M 79.750 91.740 C 83.188 91.936, 88.813 91.936, 92.250 91.740 C 95.688 91.545, 92.875 91.385, 86 91.385 C 79.125 91.385, 76.313 91.545, 79.750 91.740 M 104.750 91.706 C 105.987 91.944, 108.013 91.944, 109.250 91.706 C 110.487 91.467, 109.475 91.272, 107 91.272 C 104.525 91.272, 103.513 91.467, 104.750 91.706 M 68.933 101.250 C 69.379 104.596, 69.925 105.521, 71.500 105.598 C 73.022 105.673, 73.082 105.597, 71.750 105.279 C 70.451 104.969, 70 103.848, 70 100.930 C 70 98.769, 69.632 97, 69.183 97 C 68.733 97, 68.621 98.912, 68.933 101.250 M 107.175 102.250 L 107.349 107.500 107.744 103.016 C 107.960 100.550, 108.669 98.195, 109.319 97.782 C 110.105 97.282, 109.914 97.025, 108.750 97.015 C 107.282 97.002, 107.028 97.845, 107.175 102.250 M 174.116 102.250 C 174.237 107.705, 174.630 107.181, 175.242 100.750 C 175.438 98.688, 175.239 97, 174.799 97 C 174.360 97, 174.052 99.362, 174.116 102.250 M 197.272 103 C 197.272 105.475, 197.467 106.487, 197.706 105.250 C 197.944 104.013, 197.944 101.987, 197.706 100.750 C 197.467 99.513, 197.272 100.525, 197.272 103 M 203.825 101.674 C 204.251 103.767, 204.503 104.019, 204.794 102.644 C 205.011 101.623, 204.751 100.351, 204.218 99.818 C 203.592 99.192, 203.452 99.849, 203.825 101.674 M 206.158 102 C 206.158 103.375, 206.385 103.938, 206.662 103.250 C 206.940 102.563, 206.940 101.438, 206.662 100.750 C 206.385 100.063, 206.158 100.625, 206.158 102 M 109 104.167 C 109 106.738, 109.324 107, 112.500 107 C 115.790 107, 115.998 106.805, 115.960 103.750 L 115.920 100.500 114.412 103.280 C 112.834 106.191, 110.499 106.023, 111.276 103.054 C 111.539 102.048, 111.159 101.333, 110.363 101.333 C 109.533 101.333, 109 102.442, 109 104.167 M 176 105.387 C 176 105.599, 177.350 105.971, 179 106.213 C 180.650 106.455, 182 106.282, 182 105.827 C 182 105.372, 180.650 105, 179 105 C 177.350 105, 176 105.174, 176 105.387 M 199 105.383 C 199 105.594, 200.111 105.979, 201.470 106.239 C 202.828 106.499, 203.702 106.326, 203.411 105.856 C 202.899 105.027, 199 104.610, 199 105.383" stroke="none" fill="#9dc947" fill-rule="evenodd"/><path d="M 203.500 53.674 C 210.432 54.702, 219.482 57.161, 226.987 60.055 C 234.690 63.026, 236.158 64.166, 234 65.500 C 233.450 65.840, 233 67.859, 233 69.986 C 233 74.640, 236.006 77.469, 242.757 79.169 C 247.377 80.332, 249.271 82.582, 246.896 84.086 C 246.128 84.572, 242.688 84.976, 239.250 84.985 L 233 85 233 88.097 L 233 91.193 242.583 90.847 C 251.913 90.509, 252.242 90.416, 255.017 87.309 L 257.867 84.117 260.808 88.809 C 262.426 91.389, 264.242 94.400, 264.844 95.500 C 266.862 99.185, 266.027 95.973, 263.859 91.710 C 252.296 68.970, 231.285 54.610, 208.051 53.568 C 203.898 53.382, 201.850 53.430, 203.500 53.674 M 18 64.500 L 18 68 31 68 L 44 68 44 64.500 L 44 61 31 61 L 18 61 18 64.500 M 50 76 L 50 91 60.500 91 L 71 91 71 87.500 L 71 84 64.500 84 L 58 84 58 72.500 L 58 61 54 61 L 50 61 50 76 M 74 76 L 74 91 86.563 91 L 99.127 91 98.813 87.750 L 98.500 84.500 90.750 84.208 C 83.265 83.926, 83 83.832, 83 81.458 C 83 79.081, 83.232 79, 90 79 L 97 79 97 76 L 97 73 90 73 C 83.200 73, 83 72.929, 83 70.500 C 83 68.056, 83.167 68, 90.500 68 L 98 68 98 64.500 L 98 61 86 61 L 74 61 74 76 M 103 76 L 103 91 106.960 91 L 110.919 91 111.210 82.750 L 111.500 74.500 114.138 81 C 116.485 86.784, 117.106 87.534, 119.778 87.805 C 122.652 88.097, 122.902 87.799, 125.640 80.805 L 128.500 73.500 128.789 82.250 L 129.078 91 132.789 91 L 136.500 91 136.311 76.250 L 136.122 61.500 131.688 61.200 L 127.254 60.901 123.877 68.937 C 122.020 73.357, 120.261 76.980, 119.969 76.987 C 119.676 76.994, 117.802 73.400, 115.803 69 L 112.169 61 107.584 61 L 103 61 103 76 M 142 76 L 142 91 154.250 91 L 166.500 91 166.407 87.750 L 166.313 84.500 158.092 84.209 C 150.257 83.931, 149.886 83.814, 150.186 81.709 C 150.471 79.701, 151.144 79.474, 157.571 79.210 L 164.642 78.920 164.214 76.003 C 163.795 73.153, 163.635 73.080, 157.143 72.793 C 151.120 72.527, 150.470 72.290, 150.180 70.250 C 149.872 68.076, 150.134 68, 157.930 68 L 166 68 166 64.500 L 166 61 154 61 L 142 61 142 76 M 171 75.940 L 171 91 174.960 91 L 178.919 91 179.210 82.976 L 179.500 74.951 185.500 82.936 C 191.106 90.397, 191.746 90.923, 195.250 90.960 L 199 91 199 76 L 199 61 195.040 61 L 191.081 61 190.790 69.134 L 190.500 77.269 184.482 69.384 C 179.070 62.295, 178.087 61.469, 174.732 61.190 L 171 60.879 171 75.940 M 202 64.500 C 202 67.981, 202.024 68, 206.500 68 L 211 68 211 79.500 L 211 91 215.554 91 L 220.108 91 219.924 79.750 L 219.740 68.500 223.870 68.193 C 227.851 67.896, 228 67.761, 228 64.443 L 228 61 215 61 L 202 61 202 64.500 M 242.250 70.250 C 242.478 70.938, 243.514 71.664, 244.551 71.865 C 246.182 72.181, 246.256 72.013, 245.096 70.615 C 243.510 68.704, 241.656 68.466, 242.250 70.250 M 18 76 L 18 79 30 79 L 42 79 42 76 L 42 73 30 73 L 18 73 18 76 M 18 87.500 L 18 91 31.500 91 L 45 91 45 87.500 L 45 84 31.500 84 L 18 84 18 87.500 M 152 98.117 C 152 98.603, 152.450 99, 153 99 C 153.550 99, 154 100.800, 154 103 C 154 105.200, 154.450 107, 155 107 C 155.550 107, 156 105.200, 156 103 C 156 99.933, 156.389 99, 157.667 99 C 158.583 99, 159.002 98.669, 158.598 98.264 C 157.531 97.198, 152 97.074, 152 98.117 M 175.667 97.667 C 175.300 98.033, 175 100.283, 175 102.667 C 175 106.920, 175.060 106.997, 178.250 106.850 C 181.275 106.711, 181.310 106.671, 178.750 106.284 C 175.603 105.807, 174.962 103, 178 103 C 179.100 103, 180 102.550, 180 102 C 180 101.450, 179.100 101, 178 101 C 176.900 101, 176 100.550, 176 100 C 176 99.450, 177.125 99, 178.500 99 C 179.875 99, 181 98.550, 181 98 C 181 96.888, 176.714 96.620, 175.667 97.667 M 198.493 97.581 C 197.939 97.814, 197.647 100.029, 197.844 102.502 C 198.227 107.316, 199.851 108.220, 204.066 105.965 C 207.081 104.351, 206.675 99.207, 203.435 97.975 C 200.730 96.947, 200.118 96.898, 198.493 97.581 M 68.142 102.250 C 68 106.990, 68.007 107, 71.250 106.900 C 74.245 106.808, 74.304 106.746, 72 106.110 C 70.031 105.565, 69.371 104.578, 68.892 101.459 L 68.284 97.500 68.142 102.250 M 89 102.500 C 89 104.975, 89.450 107, 90 107 C 90.550 107, 91 104.975, 91 102.500 C 91 100.025, 90.550 98, 90 98 C 89.450 98, 89 100.025, 89 102.500 M 108.132 102.750 C 108.259 107.335, 108.287 107.378, 108.958 104 L 109.653 100.500 110.802 103.250 C 111.433 104.763, 112.172 106, 112.443 106 C 112.714 106, 113.607 104.763, 114.428 103.250 L 115.920 100.500 115.960 103.750 C 115.982 105.537, 116.450 107, 117 107 C 117.550 107, 118 104.975, 118 102.500 C 118 97.276, 116.049 96.402, 114.073 100.740 C 112.868 103.384, 112.775 103.412, 111.412 101.549 C 110.635 100.487, 110 99.254, 110 98.809 C 110 98.364, 109.550 98, 109 98 C 108.450 98, 108.059 100.138, 108.132 102.750 M 134 102.500 C 134 104.975, 134.450 107, 135 107 C 135.550 107, 136 104.975, 136 102.500 C 136 100.025, 135.550 98, 135 98 C 134.450 98, 134 100.025, 134 102.500 M 199 102.570 C 199 105.654, 199.292 106.096, 201.148 105.820 C 205.879 105.116, 206.223 99, 201.531 99 C 199.296 99, 199 99.417, 199 102.570" stroke="none" fill="#0c7142" fill-rule="evenodd"/></svg>